Coordinates
version=1
nRows=17
nColumns=40
inDegrees=yes

Units are S.I. units (second, meters, Newtons, ...)
Angles are in degrees.

endheader
time	pelvis_tilt	pelvis_list	pelvis_rotation	pelvis_tx	pelvis_ty	pelvis_tz	hip_flexion_r	hip_adduction_r	hip_rotation_r	knee_angle_r	knee_angle_r_beta	ankle_angle_r	subtalar_angle_r	mtp_angle_r	hip_flexion_l	hip_adduction_l	hip_rotation_l	knee_angle_l	knee_angle_l_beta	ankle_angle_l	subtalar_angle_l	mtp_angle_l	lumbar_extension	lumbar_bending	lumbar_rotation	arm_flex_r	arm_add_r	arm_rot_r	elbow_flex_r	pro_sup_r	wrist_flex_r	wrist_dev_r	arm_flex_l	arm_add_l	arm_rot_l	elbow_flex_l	pro_sup_l	wrist_flex_l	wrist_dev_l
     18.56500000	     -4.21109257	     -7.09928345	      3.59283641	      1.04377770	      0.91637601	      0.49017213	     -1.63973841	      5.52354105	    -16.74920122	      9.19066973	      9.19066973	     17.09406961	      5.56806822	     -5.28877097	     34.09588126	    -10.48834144	     -1.68371828	     19.92578749	     19.92578749	      3.87574620	     -9.09600749	      9.44758998	    -11.14557060	      8.15456920	      4.94334105	     47.09286053	    -13.03407884	      2.81084111	    102.65272208	     43.95320369	      0.00000000	      0.00000000	    -19.35180977	     -8.02639198	      1.16167264	     26.90323367	     45.52457668	      0.00000000	      0.00000000
     18.57650000	     -4.23075717	     -6.94010160	      3.41877340	      1.04506872	      0.91487837	      0.48781493	     -2.16390937	      5.16889067	    -16.44336977	      9.44728976	      9.44728976	     17.59586640	      5.47418677	     -5.34618550	     33.68146169	    -10.24562382	     -2.25793130	     20.76056831	     20.76056831	      3.42936191	     -9.84949731	      9.39519691	    -10.79449848	      7.90987252	      4.90483753	     47.90492438	    -12.69052274	      2.85723311	    103.51357235	     43.93200842	      0.00000000	      0.00000000	    -19.88782143	     -8.03074536	      1.23423690	     26.69110490	     45.50466425	      0.00000000	      0.00000000
     18.58800000	     -4.31338871	     -6.80547562	      3.38127522	      1.04618553	      0.91322118	      0.48515190	     -2.20760694	      4.73981764	    -16.07782106	     10.52215689	     10.52215689	     18.51958484	      4.69837156	     -4.66202823	     33.35180868	     -9.81655233	     -2.01038510	     21.48588569	     21.48588569	      2.34316790	    -11.54222417	      8.37943626	    -10.56614738	      7.78351955	      4.38832557	     48.30152712	    -12.06229401	      3.55403590	    106.84409841	     43.83759368	      0.00000000	      0.00000000	    -20.45980974	     -7.91339854	      1.59199650	     26.95358376	     45.44197075	      0.00000000	      0.00000000
     18.59950000	     -4.22359873	     -6.68354935	      3.27954904	      1.04750057	      0.91204216	      0.48252154	     -2.56720345	      4.33526279	    -15.81371392	     11.40353749	     11.40353749	     19.78389559	      4.56458151	     -2.54100023	     32.82250270	     -9.53813951	     -1.96235088	     22.16235801	     22.16235801	      0.86972700	    -12.93638433	      5.66318765	    -10.46458793	      7.62226489	      4.64148686	     48.48053852	    -12.21683933	      3.55727218	    109.30240416	     43.91671755	      0.00000000	      0.00000000	    -20.62778012	     -8.17153899	      3.09170059	     27.34743842	     45.26212452	      0.00000000	      0.00000000
     18.61100000	     -4.20155697	     -6.47587553	      3.20292811	      1.04868993	      0.91102681	      0.47977867	     -2.84633546	      3.84171848	    -15.48177491	     12.19684011	     12.19684011	     20.20919937	      4.06701868	     -2.55438456	     32.60484470	     -9.20421651	     -1.90830724	     23.27604410	     23.27604410	      0.72612159	    -13.69298710	      5.49871009	    -10.29772410	      7.37141498	      4.31430908	     48.76528803	    -11.82511244	      3.92847121	    111.00733593	     43.86890453	      0.00000000	      0.00000000	    -20.78396278	     -8.08643673	      3.17549895	     27.34785921	     45.25563324	      0.00000000	      0.00000000
     18.62250000	     -4.17854130	     -6.25505451	      3.12843578	      1.04982014	      0.91032047	      0.47692910	     -2.98306074	      3.29105388	    -15.15472747	     13.25339115	     13.25339115	     20.57319352	      3.38666707	     -2.44810428	     32.40925020	     -8.85312059	     -1.79815597	     24.36441480	     24.36441480	      0.83081299	    -14.42343195	      5.23261656	    -10.16187483	      7.09268386	      4.08559627	     48.73919568	    -11.66681903	      4.31693261	    113.05986708	     43.81090019	      0.00000000	      0.00000000	    -20.66895421	     -8.01420970	      3.21829634	     27.41628547	     45.26202835	      0.00000000	      0.00000000
     18.63400000	     -4.11491141	     -6.00103948	      3.07097729	      1.05084982	      0.91011199	      0.47397745	     -3.09340353	      2.68393305	    -14.73939755	     14.40785428	     14.40785428	     20.77850831	      2.74038026	     -2.33238983	     32.17221678	     -8.47232956	     -1.62979249	     25.39524753	     25.39524753	      1.12689774	    -14.91404099	      5.00639476	    -10.11560198	      6.74275972	      4.03055520	     48.35322823	    -11.76198979	      4.60517318	    114.97327521	     43.76096002	      0.00000000	      0.00000000	    -20.33860562	     -8.01613102	      3.23393574	     27.41775304	     45.27817972	      0.00000000	      0.00000000
     18.64550000	     -4.00632525	     -5.76668377	      3.02659915	      1.05187324	      0.91030147	      0.47083550	     -3.11743749	      2.05083310	    -14.42404019	     15.80550500	     15.80550500	     20.86463353	      2.01604777	     -2.43371280	     31.86359111	     -8.11004170	     -1.51999183	     26.34460504	     26.34460504	      1.69357422	    -15.29516063	      4.82144534	    -10.08956382	      6.49851895	      3.93396853	     47.83699825	    -11.79395669	      4.86321099	    116.64380452	     43.71549406	      0.00000000	      0.00000000	    -19.85025338	     -7.95939633	      3.25831903	     27.35166413	     45.29396356	      0.00000000	      0.00000000
     18.65700000	     -3.90493229	     -5.52363523	      2.96834866	      1.05278865	      0.91087779	      0.46762458	     -2.94114224	      1.35970745	    -14.08618128	     17.52392165	     17.52392165	     20.73613360	      1.16665046	     -2.75055624	     31.48955907	     -7.73998310	     -1.45472866	     27.14412323	     27.14412323	      2.43549421	    -15.57797858	      4.69954745	    -10.07003138	      6.21788874	      3.82443814	     47.05239484	    -11.88204444	      5.15560053	    118.20579428	     43.66917278	      0.00000000	      0.00000000	    -19.18979605	     -7.90845095	      3.27535209	     27.26676274	     45.31283631	      0.00000000	      0.00000000
     18.66850000	     -3.83237131	     -5.34130269	      2.91900848	      1.05355123	      0.91184330	      0.46433238	     -2.59900737	      0.74474327	    -13.59494173	     19.38377273	     19.38377273	     20.02813443	     -0.17582187	     -3.92603159	     31.09299631	     -7.39499482	     -1.33509343	     27.81764255	     27.81764255	      3.55816004	    -15.71092499	      5.41931734	    -10.11820668	      5.99754885	      4.42492064	     45.56046520	    -12.91908715	      5.06112854	    120.91001020	     43.63658421	      0.00000000	      0.00000000	    -17.73612946	     -7.91698272	      3.32399450	     26.58152777	     45.36564771	      0.00000000	      0.00000000
     18.68000000	     -3.80026306	     -5.13007775	      2.84087611	      1.05416316	      0.91296954	      0.46095829	     -1.85944781	     -0.03947675	    -13.32703792	     21.91035102	     21.91035102	     19.37982383	     -1.28847033	     -4.81883834	     30.58784463	     -7.04251765	     -1.40616203	     28.19786750	     28.19786750	      4.38136920	    -15.81038820	      5.30023645	    -10.06040033	      5.78183717	      4.10635584	     44.45618586	    -12.82441563	      5.39387280	    121.77853707	     43.61049918	      0.00000000	      0.00000000	    -16.91654425	     -7.80252291	      3.37162934	     26.54744693	     45.38241609	      0.00000000	      0.00000000
     18.69150000	     -3.75564221	     -4.90997790	      2.72819635	      1.05463866	      0.91436780	      0.45764051	     -0.90366633	     -0.85417942	    -12.97149626	     24.78556016	     24.78556016	     18.42653951	     -2.64039506	     -5.82415423	     29.93749322	     -6.69018832	     -1.56572325	     28.34894859	     28.34894859	      5.16878940	    -15.85484736	      5.17674411	    -10.04149369	      5.53243302	      3.90165937	     43.07922728	    -12.90267606	      5.79755894	    122.59134435	     43.57765431	      0.00000000	      0.00000000	    -15.95238809	     -7.70925668	      3.38073656	     26.64581004	     45.40477881	      0.00000000	      0.00000000
     18.70300000	     -3.87429008	     -4.77289819	      2.61277731	      1.05486899	      0.91562655	      0.45431605	      0.49253257	     -1.55597330	    -12.42432133	     27.98756445	     27.98756445	     16.77564300	     -4.82307530	     -7.80426393	     29.41243144	     -6.39621058	     -1.73726453	     28.35293900	     28.35293900	      5.92488997	    -15.91382854	      5.22661621	     -9.84085960	      5.43867207	      3.99972771	     41.35201918	    -13.53665468	      6.10263872	    123.89243157	     43.54148001	      0.00000000	      0.00000000	    -14.71339901	     -7.65187653	      3.34257361	     26.67702336	     45.44450322	      0.00000000	      0.00000000
     18.71450000	     -3.78379124	     -4.62132512	      2.43875225	      1.05506793	      0.91734162	      0.45125982	      1.64306698	     -2.22707107	    -11.90724545	     30.86387677	     30.86387677	     13.20461341	     -7.94060051	    -13.99223785	     28.55770317	     -6.15378537	     -2.01848125	     28.22284463	     28.22284463	      6.75352599	    -15.71147151	      5.39636120	     -9.99629919	      5.23087733	      4.52747983	     39.04120099	    -14.22729893	      5.71861541	    125.37854073	     43.58223179	      0.00000000	      0.00000000	    -12.93825624	     -7.58470971	      3.34465951	     26.19349460	     45.51264947	      0.00000000	      0.00000000
     18.72600000	     -3.82040271	     -4.41828857	      2.26576394	      1.05497049	      0.91878925	      0.44819895	      3.44156165	     -3.10229651	    -11.57396907	     34.81786024	     34.81786024	     11.49433363	     -9.70669953	    -14.35754254	     27.74917248	     -5.84638984	     -2.40484972	     27.87721461	     27.87721461	      7.29215441	    -15.53600951	      5.12372277	     -9.94654436	      5.03058422	      4.13788311	     37.25644178	    -14.21869668	      6.25483982	    125.19937364	     43.56933109	      0.00000000	      0.00000000	    -11.91506558	     -7.57244771	      3.31880510	     26.68809967	     45.53657739	      0.00000000	      0.00000000
     18.73750000	     -3.83860910	     -4.23567951	      2.07892951	      1.05467293	      0.92015228	      0.44536903	      5.38543032	     -3.90034433	    -11.16767914	     38.88776714	     38.88776714	      9.45507189	    -11.75754303	    -14.52560099	     26.93085085	     -5.58204113	     -2.82982786	     27.51985193	     27.51985193	      7.76322889	    -15.34337752	      4.82313240	     -9.94906291	      4.80326853	      3.86432846	     35.28745510	    -14.32199819	      6.75123986	    124.96122155	     43.55760759	      0.00000000	      0.00000000	    -10.76359324	     -7.59604500	      3.25956371	     27.31995227	     45.56675422	      0.00000000	      0.00000000
     18.74900000	     -3.86192938	     -4.07675332	      1.91074146	      1.05417475	      0.92138006	      0.44265361	      7.45776807	     -4.63270231	    -10.75722039	     42.98161562	     42.98161562	      7.22293741	    -13.84980635	    -14.36174083	     26.12227064	     -5.34052488	     -3.24874642	     27.12774461	     27.12774461	      8.18547953	    -15.08661828	      4.48691564	     -9.97287963	      4.62371396	      3.60587108	     33.19516551	    -14.50670768	      7.17590500	    124.54696439	     43.55258061	      0.00000000	      0.00000000	     -9.53461110	     -7.66368136	      3.17786533	     28.06951414	     45.60060282	      0.00000000	      0.00000000
